<?xml version="1.0" encoding="UTF-8"?>
<svg width="96px" height="80px" viewBox="0 0 96 80" version="1.1" xmlns="http://www.w3.org/2000/svg" xmlns:xlink="http://www.w3.org/1999/xlink">
    <!-- Generator: Sketch 52.6 (67491) - http://www.bohemiancoding.com/sketch -->
    <title>actions-unsee</title>
    <desc>Created with Sketch.</desc>
    <g id="Page-1" stroke="none" stroke-width="1" fill="none" fill-rule="evenodd">
        <g id="actions-unsee" fill="#000000">
            <polygon id="Path" points="81.652 0.902 87.0973 6.3473 14.3473 79.0973 8.902 73.652"></polygon>
            <path d="M48,71.453 C42.9453,71.449094 38.0664,70.80456 33.492,69.5428 L35.5428,62.1209 C39.449,63.199 43.6444,63.7459 48.0038,63.7498 C73.1918,63.7498 84.5778,45.3908 87.3828,40.0038 C86.0312,37.414 82.707,31.8241 76.9058,26.7658 L81.9722,20.9572 C91.2417,29.047 95.0582,38.1482 95.2102,38.5352 C95.59692,39.4727 95.59692,40.5274 95.2102,41.4649 C94.7102,42.6876 82.4722,71.4529 47.9992,71.4529 L48,71.453 Z" id="Path"></path>
            <path d="M14.023,59.043 C4.7613,50.9532 0.949,41.852 0.789,41.465 C0.40228,40.5275 0.39838,39.4728 0.785094,38.5353 C1.289004,37.3126 13.512094,8.5473 48.000094,8.5473 C53.046994,8.551206 57.921994,9.19574 62.496094,10.4575 L60.445294,17.8794 C56.539094,16.8013 52.347594,16.2544 47.996294,16.2505 C22.609294,16.2505 11.398294,34.5205 8.613294,39.9845 C9.957094,42.5626 13.281294,48.1642 19.090294,53.2345 L14.023,59.043 Z" id="Path"></path>
            <path d="M48,54.859 C39.8047,54.859 33.141,48.1949 33.141,40 C33.141,31.8051 39.8051,25.141 48,25.141 C56.1949,25.141 62.859,31.8051 62.859,40 C62.859,48.1949 56.1949,54.859 48,54.859 Z M48,32.843 C44.0547,32.843 40.8438,36.0539 40.8438,39.9992 C40.8438,43.9445 44.0547,47.1554 48,47.1554 C51.9453,47.1554 55.1562,43.9445 55.1562,39.9992 C55.1562,36.0539 51.9453,32.843 48,32.843 Z" id="Shape" fill-rule="nonzero"></path>
        </g>
    </g>
</svg>