<?xml version="1.0" encoding="UTF-8"?>
<svg width="63px" height="52px" viewBox="0 0 63 52" version="1.1" xmlns="http://www.w3.org/2000/svg" xmlns:xlink="http://www.w3.org/1999/xlink">
    <!-- Generator: Sketch 52.6 (67491) - http://www.bohemiancoding.com/sketch -->
    <title>actions-forward</title>
    <desc>Created with Sketch.</desc>
    <g id="Page-1" stroke="none" stroke-width="1" fill="none" fill-rule="evenodd">
        <g id="actions-forward" fill="#000000">
            <path d="M0.465,35.266 L0.465,16.641 C0.465,16.641 0.32828,14.2465 2.6642,14.2465 L35.1212,14.2465 C35.1212,14.2465 37.6603,14.76603 37.6603,10.766 L37.6603,1.559 C37.6603,1.559 37.75405,-0.3199 39.2462,1.22697 C40.7384,2.77387 61.6132,24.43797 61.6132,24.43797 C61.6132,24.43797 63.2148,25.88327 61.6132,27.54347 C60.0116,29.20367 38.8552,51.12947 38.8552,51.12947 C38.8552,51.12947 37.6599,52.07869 37.6599,50.30916 L37.6599,39.95416 C37.6599,39.95416 38.07787,37.73936 34.8708,37.73936 L2.5588,37.73936 C2.5588,37.73936 0.465,37.8917 0.465,35.26666 L0.465,35.266 Z" id="Path"></path>
        </g>
    </g>
</svg>