<?xml version="1.0" encoding="UTF-8"?>
<svg width="82px" height="50px" viewBox="0 0 82 50" version="1.1" xmlns="http://www.w3.org/2000/svg" xmlns:xlink="http://www.w3.org/1999/xlink">
    <!-- Generator: Sketch 52.6 (67491) - http://www.bohemiancoding.com/sketch -->
    <title>actions-mail</title>
    <desc>Created with Sketch.</desc>
    <g id="Page-1" stroke="none" stroke-width="1" fill="none" fill-rule="evenodd">
        <g id="actions-mail" fill="#000000" fill-rule="nonzero">
            <path d="M6.031,0 C4.7068,0 3.6052,0.19531 2.7185,0.625 L38.9685,30.187 C40.4412,30.90575 41.5583,30.90575 43.031,30.187 L79.281,0.625 C78.41772,0.20703 77.3669,-3.55271368e-15 76.0935,-3.55271368e-15 L6.031,0 Z M0.281,3.75 C0.10522,4.41016 -0.00025,5.1641 -0.00025,6 L-0.00025,44 C-0.00025,45.0273 0.14037,45.9219 0.406,46.6875 L26.062,24.8755 L0.281,3.75 Z M81.75,3.75 L55.938,24.875 L81.594,46.687 C81.86353,45.90575 82.00025,44.9682 82.00025,43.9058 L82.00025,5.9058 C82.00025,5.10892 81.914312,4.3863 81.75025,3.7496 L81.75,3.75 Z M29.25,27.438 L3.219,49.563 C4.01978,49.85597 4.9846,50.0005 6.094,50.0005 L76.032,50.0005 C77.0828,50.0005 78.0086,49.84425 78.782,49.563 L52.751,27.438 C50.1494,29.5318 47.5049,31.7388 44.9072,33.7818 C42.4306,35.0201 39.5713,35.0201 37.0947,33.7818 C34.4775,31.7349 31.8525,29.5513 29.2509,27.438 L29.25,27.438 Z" id="Shape"></path>
        </g>
    </g>
</svg>