<?xml version="1.0" encoding="UTF-8"?>
<svg width="96px" height="64px" viewBox="0 0 96 64" version="1.1" xmlns="http://www.w3.org/2000/svg" xmlns:xlink="http://www.w3.org/1999/xlink">
    <!-- Generator: Sketch 52.6 (67491) - http://www.bohemiancoding.com/sketch -->
    <title>actions-see</title>
    <desc>Created with Sketch.</desc>
    <g id="Page-1" stroke="none" stroke-width="1" fill="none" fill-rule="evenodd">
        <g id="actions-see" fill="#000000" fill-rule="nonzero">
            <path d="M48,63.449 C13.516,63.449 1.289,34.687 0.785,33.465 C0.40219,32.5275 0.40219,31.4728 0.785,30.5353 C1.28891,29.3126 13.515,0.5513 48,0.5513 C82.473,0.5513 94.711,29.3133 95.211,30.5353 C95.59772,31.4728 95.59772,32.5275 95.211,33.465 C94.711,34.6877 82.473,63.449 48,63.449 Z M8.609,32.015 C11.3824,37.4603 22.593,55.745 48,55.745 C73.407,55.745 84.625,37.44 87.398,31.999 C84.6285,26.5654 73.418,8.253 48,8.253 C22.777,8.253 11.395,26.648 8.609,32.015 Z" id="Shape"></path>
            <path d="M48,46.859 C39.8047,46.859 33.141,40.1949 33.141,32 C33.141,23.8051 39.8051,17.141 48,17.141 C56.1949,17.141 62.859,23.8051 62.859,32 C62.859,40.1949 56.1949,46.859 48,46.859 Z M48,24.843 C44.0547,24.843 40.8438,28.0539 40.8438,31.9992 C40.8438,35.9445 44.0547,39.1554 48,39.1554 C51.9453,39.1554 55.1562,35.9445 55.1562,31.9992 C55.1562,28.0539 51.9453,24.843 48,24.843 Z" id="Shape"></path>
        </g>
    </g>
</svg>