<?xml version="1.0" encoding="UTF-8"?>
<svg width="16px" height="16px" viewBox="0 0 16 16" version="1.1" xmlns="http://www.w3.org/2000/svg" xmlns:xlink="http://www.w3.org/1999/xlink">
    <g id="Page-1" stroke="none" stroke-width="1" fill="none" fill-rule="evenodd">
        <g id="apps-pagetree-page-email">
            <rect id="Rectangle" x="0" y="0" width="16" height="16"></rect>
            <polygon id="Path" fill="#EFEFEF" points="2 0 2 16 14 16 14 4 10 0"></polygon>
            <polygon id="Path" fill="#FFFFFF" opacity="0.65" points="10 3.98 10 0 14 4"></polygon>
            <polygon id="Path" fill="#000000" opacity="0.2" points="13 5 13 10 9 5"></polygon>
            <path d="M2,0 L2,16 L14,16 L14,4 L13.988,4 L13.992,3.992 L10.008,0.006 L10,0.014 L10,0 L2,0 Z M3,1 L9,1 L9,5 L13,5 L13,15 L3,15 L3,1 Z M10,1.412 L12.586,4 L10,4 L10,1.412 Z" id="Shape" fill="#999999" fill-rule="nonzero"></path>
            <rect id="Rectangle" fill="#FFFFFF" fill-rule="nonzero" x="4" y="9" width="10" height="7"></rect>
            <path d="M4,9 L4,16 L13.9994484,16 L14,9 L4,9 Z M8.98455493,12 L6,10 L12,10 L8.98455493,12 Z M7,12.3890667 L5,14 L5,11 L7,12.3890667 Z M7.80910341,13 L9,14.163493 L10.251393,13.0662405 L12,14.9993749 L6,15 L7.80910341,13 Z M11,12.3802829 L13,11 L13,14 L11,12.3802829 Z" id="Shape" fill="#4B4B4B" fill-rule="nonzero"></path>
        </g>
    </g>
</svg>
