<?xml version="1.0" encoding="UTF-8"?>
<svg width="50px" height="64px" viewBox="0 0 50 64" version="1.1" xmlns="http://www.w3.org/2000/svg" xmlns:xlink="http://www.w3.org/1999/xlink">
    <!-- Generator: Sketch 52.5 (67469) - http://www.bohemiancoding.com/sketch -->
    <title>Drill</title>
    <desc>Created with Sketch.</desc>
    <g id="Page-1" stroke="none" stroke-width="1" fill="none" fill-rule="evenodd">
        <g id="Drill">
            <rect id="Rectangle" stroke="#FFFFFF" fill="#D8D8D8" x="0.5" y="0.5" width="49" height="63"></rect>
            <rect id="Rectangle" fill="#FFFFFF" x="6" y="7" width="38" height="50"></rect>
            <rect id="Rectangle" fill="#649EE2" x="21" y="10" width="8" height="8"></rect>
            <rect id="Rectangle-Copy-17" fill="#649EE2" x="19" y="43" width="12" height="2"></rect>
            <rect id="Rectangle-Copy-18" fill="#649EE2" x="24" y="52" width="2" height="2"></rect>
            <rect id="Rectangle-Copy-19" fill="#649EE2" x="20" y="52" width="2" height="2"></rect>
            <rect id="Rectangle-Copy-20" fill="#649EE2" x="28" y="52" width="2" height="2"></rect>
            <rect id="Rectangle-Copy-14" fill="#649EE2" x="6" y="7" width="38" height="1"></rect>
            <rect id="Rectangle-Copy-22" fill="#649EE2" x="6" y="1" width="15" height="3"></rect>
            <rect id="Rectangle-Copy" fill="#3B3B3B" x="15" y="20" width="20" height="2"></rect>
            <rect id="Rectangle-Copy-15" fill="#737373" x="20" y="23" width="10" height="1"></rect>
            <rect id="Rectangle-Copy-16" fill="#CDCDCD" x="6" y="28" width="38" height="1"></rect>
            <rect id="Rectangle-Copy-3" fill="#737373" x="12" y="34" width="27" height="1"></rect>
            <rect id="Rectangle-Copy-4" fill="#737373" x="10" y="36" width="31" height="1"></rect>
            <rect id="Rectangle-Copy-5" fill="#737373" x="13" y="38" width="25" height="1"></rect>
            <rect id="Rectangle-Copy-6" fill="#737373" x="13" y="48" width="24" height="1"></rect>
            <rect id="Rectangle-Copy-21" fill="#737373" x="16" y="50" width="18" height="1"></rect>
            <rect id="Rectangle-Copy-2" fill="#737373" x="9" y="32" width="33" height="1"></rect>
        </g>
    </g>
</svg>