<?xml version="1.0" encoding="UTF-8"?>
<svg width="50px" height="64px" viewBox="0 0 50 64" version="1.1" xmlns="http://www.w3.org/2000/svg" xmlns:xlink="http://www.w3.org/1999/xlink">
    <!-- Generator: Sketch 52.5 (67469) - http://www.bohemiancoding.com/sketch -->
    <title>Marketing</title>
    <desc>Created with Sketch.</desc>
    <g id="Page-1" stroke="none" stroke-width="1" fill="none" fill-rule="evenodd">
        <g id="Marketing">
            <rect id="Rectangle" stroke="#FFFFFF" fill="#D8D8D8" x="0.5" y="0.5" width="49" height="63"></rect>
            <rect id="Rectangle" fill="#FFFFFF" x="6" y="1" width="38" height="56"></rect>
            <rect id="Rectangle-Copy-32" fill="#FFFFFF" x="5" y="1" width="38" height="56"></rect>
            <rect id="Rectangle-Copy-33" fill="#FFFFFF" x="4" y="1" width="38" height="56"></rect>
            <rect id="Rectangle-Copy-17" fill="#649EE2" x="9" y="43" width="32" height="3"></rect>
            <rect id="Rectangle-Copy-18" fill="#649EE2" x="24" y="52" width="2" height="2"></rect>
            <rect id="Rectangle-Copy-26" fill="#649EE2" x="24" y="27" width="2" height="2"></rect>
            <rect id="Rectangle-Copy-19" fill="#649EE2" x="20" y="52" width="2" height="2"></rect>
            <rect id="Rectangle-Copy-27" fill="#649EE2" x="12" y="27" width="2" height="2"></rect>
            <rect id="Rectangle-Copy-20" fill="#649EE2" x="28" y="52" width="2" height="2"></rect>
            <rect id="Rectangle-Copy-28" fill="#649EE2" x="36" y="27" width="2" height="2"></rect>
            <rect id="Rectangle-Copy-14" fill="#649EE2" x="17" y="6" width="9" height="2"></rect>
            <rect id="Rectangle-Copy-22" fill="#9E9E9E" x="8" y="1" width="7" height="10"></rect>
            <rect id="Rectangle-Copy" fill="#3B3B3B" x="17" y="2" width="20" height="2"></rect>
            <rect id="Rectangle-Copy-15" fill="#737373" x="11" y="14" width="28" height="2"></rect>
            <rect id="Rectangle-Copy-25" fill="#737373" x="11" y="40" width="28" height="1"></rect>
            <rect id="Rectangle-Copy-3" fill="#B0AFAF" x="13" y="20" width="24" height="1"></rect>
            <rect id="Rectangle-Copy-29" fill="#B0AFAF" x="22" y="32" width="6" height="1"></rect>
            <rect id="Rectangle-Copy-34" fill="#B0AFAF" x="34" y="32" width="6" height="1"></rect>
            <rect id="Rectangle-Copy-37" fill="#B0AFAF" x="10" y="32" width="6" height="1"></rect>
            <rect id="Rectangle-Copy-4" fill="#B0AFAF" x="11" y="22" width="28" height="1"></rect>
            <rect id="Rectangle-Copy-30" fill="#B0AFAF" x="21" y="34" width="8" height="1"></rect>
            <rect id="Rectangle-Copy-35" fill="#B0AFAF" x="33" y="34" width="8" height="1"></rect>
            <rect id="Rectangle-Copy-38" fill="#B0AFAF" x="9" y="34" width="8" height="1"></rect>
            <rect id="Rectangle-Copy-6" fill="#737373" x="13" y="48" width="24" height="1"></rect>
            <rect id="Rectangle-Copy-21" fill="#737373" x="16" y="50" width="18" height="1"></rect>
            <rect id="Rectangle-Copy-2" fill="#B0AFAF" x="11" y="18" width="28" height="1"></rect>
            <rect id="Rectangle-Copy-31" fill="#B0AFAF" x="21" y="30" width="8" height="1"></rect>
            <rect id="Rectangle-Copy-36" fill="#B0AFAF" x="33" y="30" width="8" height="1"></rect>
            <rect id="Rectangle-Copy-39" fill="#B0AFAF" x="9" y="30" width="8" height="1"></rect>
        </g>
    </g>
</svg>