<?xml version="1.0" encoding="UTF-8"?>
<svg width="83px" height="82px" viewBox="0 0 83 82" version="1.1" xmlns="http://www.w3.org/2000/svg" xmlns:xlink="http://www.w3.org/1999/xlink">
    <!-- Generator: Sketch 52.5 (67469) - http://www.bohemiancoding.com/sketch -->
    <title>tx_bwemail_domain_model_contactsource_feuser</title>
    <desc>Created with Sketch.</desc>
    <g id="Page-1" stroke="none" stroke-width="1" fill="none" fill-rule="evenodd">
        <g id="tx_bwemail_domain_model_contactsource_feuser" transform="translate(0.257812, 0.000000)">
            <path d="M9,0 L9,9 L0,9 L0,73 L9,73 L9,82 L73,82 L73,73 L82,73 L82,9 L73,9 L73,0 L9,0 Z M4,13 L78,13 L78,69 L4,69 L4,13 Z" id="Shape" fill="#000000" fill-rule="nonzero"></path>
            <path d="M13,73.0002 L69,73.0002 L69,78.0002 L13,78.0002 L13,73.0002 Z M13,4 L69,4 L69,9 L13,9 L13,4 Z" id="Path-2" fill="#BEBEBE" fill-rule="nonzero"></path>
            <g id="status-user-frontend" transform="translate(17.500000, 17.500000)">
                <path d="M41.6977489,34.7960525 C36.8435557,33.4099618 33.4559731,31.5119953 30.0798933,30.2121758 C30.2869442,30.8793398 30.318577,31.2215489 29.9073509,31.632775 C26.4565027,35.3711939 19.2672357,35.0836232 16.1039582,31.632775 C15.6869807,31.2157975 15.7646248,30.8707127 16.0148113,30.180543 C12.6099744,31.4774868 9.20513752,33.398459 4.31356023,34.7960525 C4.31356023,34.7960525 0.287570682,37.0966179 0,46.0113091 L46.0113091,46.0113091 C45.7237384,36.8090473 41.6977489,34.7960525 41.6977489,34.7960525 Z" id="Path" fill="#79A548"></path>
                <path d="M3.15465038,43.1356023 C3.77005164,39.4144376 5.16764515,37.8356746 5.60762829,37.4129457 C8.77665721,36.4668382 11.3360363,35.330934 13.6078447,34.3215609 L14.3814098,33.9793518 C16.4835515,36.0067251 19.6813375,37.2030191 23.0574173,37.2030191 C26.4565027,37.2030191 29.5795203,36.0067251 31.6356507,33.9793518 L32.4034644,34.3186852 C34.6838999,35.330934 37.2576575,36.4725896 40.4439407,37.4215728 C40.9069295,37.8327989 42.2786416,39.3367936 42.8739129,43.1327266 L43.1356023,46.0113091 L46.0113091,46.0113091 C45.7237384,36.8090473 41.6977489,34.7960525 41.6977489,34.7960525 C36.8435557,33.4099618 33.4559731,31.5119953 30.0798933,30.2121758 C30.2869442,30.8793398 30.318577,31.2215489 29.9073509,31.632775 C28.2164353,33.4646002 25.6282992,34.330188 23.0545416,34.330188 C20.3772585,34.330188 17.7172297,33.3927076 16.1039582,31.632775 C15.6869807,31.2157975 15.7646248,30.8707127 16.0148113,30.180543 C12.6099744,31.4774868 9.20513752,33.398459 4.31356023,34.7960525 C4.31356023,34.7960525 0.287570682,37.0966179 0,46.0113091 L2.87570682,46.0113091 L3.15465038,43.1356023 Z" id="Path" fill="#000000" opacity="0.15"></path>
                <path d="M23.0056545,25.8813614 C20.9667784,25.8813614 18.9480322,24.6994459 17.262868,23.0229088 C17.1334612,29.9878707 15.0485738,30.5773906 16.1039582,31.632775 C19.2672357,35.0836232 26.4565027,35.3711939 29.9073509,31.632775 C30.965611,30.5745149 29.1079044,29.984995 28.8030795,22.9653946 C27.1064125,24.6735645 25.0675363,25.8813614 23.0056545,25.8813614 Z" id="Path" fill="#FFC857"></path>
                <path d="M15.1003365,30.5601363 C15.4022857,30.436481 15.7128621,30.2955713 16.0148113,30.180543 C15.7646248,30.8707127 15.6869807,31.2157975 16.1039582,31.632775 C16.4835515,32.0440011 16.9235346,32.4063401 17.4037777,32.7284193 L18.2693654,32.397713 L18.7151,31.152532 L18.7956198,30.9311025 C19.1637102,29.9274808 19.7906143,28.1790511 20.0379251,25.0646606 C19.0111479,24.5344756 18.074583,23.8453968 17.262868,23.0229088 C17.1823482,27.2588249 16.3857774,29.1222829 16.0061841,30.180543 C15.7071106,30.2955713 15.4022857,30.436481 15.1003365,30.5601363 Z M27.3335933,31.0547579 L27.7419437,32.3948373 L28.5989043,32.7255436 C29.0705202,32.4063401 29.5191305,32.0526282 29.9073509,31.632775 C30.3157013,31.2215489 30.2840685,30.8793398 30.0798933,30.2121758 L30.0856447,30.2150515 C29.7635656,29.1567914 28.9928761,27.2818306 28.8059552,22.9653946 C28.0042856,23.7863766 27.0808925,24.4789214 26.0682823,25.0186493 C26.3501016,27.9863787 26.8993616,29.7060514 27.2214407,30.6981703 L27.3335933,31.0547579 Z" id="Shape" fill="#000000" fill-rule="nonzero" opacity="0.15"></path>
                <path d="M23.0056545,25.8813614 C18.1169529,25.8813614 13.2282514,19.2672357 13.2282514,14.6661048 L13.2282514,8.33954977 C13.2282514,3.73841886 17.2542409,0 21.8553718,0 L24.1559373,0 C29.0446389,0 32.7830577,3.73841886 32.7830577,8.33954977 L32.7830577,14.6661048 C32.7830577,19.2672357 27.8943561,25.8813614 23.0056545,25.8813614 Z" id="Path" fill="#FFC857"></path>
                <path d="M24.1559373,2.87570682 C27.3824803,2.87570682 29.9073509,5.27692201 29.9073509,8.33954977 L29.9073509,14.6661048 C29.9073509,17.8840207 26.140175,23.0056545 23.0056545,23.0056545 C19.8711341,23.0056545 16.1039582,17.8840207 16.1039582,14.6661048 L16.1039582,8.33954977 C16.1039582,5.42933447 18.7927441,2.87570682 21.8553718,2.87570682 L24.1559373,2.87570682 Z M24.1559373,0 L21.8553718,0 C17.2542409,0 13.2282514,3.73841886 13.2282514,8.33954977 L13.2282514,14.6661048 C13.2282514,19.2672357 18.1169529,25.8813614 23.0056545,25.8813614 C27.8943561,25.8813614 32.7830577,19.2672357 32.7830577,14.6661048 L32.7830577,8.33954977 C32.7830577,3.73841886 29.0446389,0 24.1559373,0 Z" id="Shape" fill="#000000" fill-rule="nonzero" opacity="0.15"></path>
            </g>
        </g>
    </g>
</svg>