<?xml version="1.0" encoding="UTF-8"?>
<svg width="83px" height="82px" viewBox="0 0 83 82" version="1.1" xmlns="http://www.w3.org/2000/svg" xmlns:xlink="http://www.w3.org/1999/xlink">
    <!-- Generator: Sketch 52.5 (67469) - http://www.bohemiancoding.com/sketch -->
    <title>tx_bwemail_domain_model_contactsource</title>
    <desc>Created with Sketch.</desc>
    <g id="Page-1" stroke="none" stroke-width="1" fill="none" fill-rule="evenodd">
        <g id="tx_bwemail_domain_model_contactsource" transform="translate(0.083337, 0.000000)" fill-rule="nonzero">
            <path d="M9,0 L9,9 L0,9 L0,73 L9,73 L9,82 L73,82 L73,73 L82,73 L82,9 L73,9 L73,0 L9,0 Z M4,13 L78,13 L78,69 L4,69 L4,13 Z" id="Shape" fill="#000000"></path>
            <path d="M13,73.0002 L69,73.0002 L69,78.0002 L13,78.0002 L13,73.0002 Z M13,4 L69,4 L69,9 L13,9 L13,4 Z" id="Path-2" fill="#BEBEBE"></path>
        </g>
    </g>
</svg>