<?xml version="1.0" encoding="UTF-8"?>
<svg width="86px" height="86px" viewBox="0 0 86 86" version="1.1" xmlns="http://www.w3.org/2000/svg" xmlns:xlink="http://www.w3.org/1999/xlink">
    <!-- Generator: Sketch 52.5 (67469) - http://www.bohemiancoding.com/sketch -->
    <title>tx_bwemail_domain_model_contactsource</title>
    <desc>Created with Sketch.</desc>
    <g id="Page-1" stroke="none" stroke-width="1" fill="none" fill-rule="evenodd">
        <g id="tx_bwemail_domain_model_contactsource">
            <rect id="Rectangle" fill="#555555" x="0" y="74" width="86" height="6"></rect>
            <rect id="Rectangle" fill="#555555" x="42" y="58" width="6" height="25"></rect>
            <rect id="Rectangle" fill="#555555" fill-rule="nonzero" x="36.1019" y="67.801" width="18" height="18" rx="2"></rect>
            <g id="status-user-backend" transform="translate(20.000000, 8.000000)">
                <path d="M42.59375,35.6648501 C37.63525,34.2639419 34.174875,32.3456857 30.72625,31.0319709 C30.93775,31.706267 30.9700625,32.0521344 30.55,32.4677566 C27.025,36.2461399 19.68125,35.955495 16.45,32.4677566 C16.0240625,32.0463215 16.103375,31.6975477 16.3589375,31 C12.8809375,32.3108084 9.4029375,34.2523161 4.40625,35.6648501 C4.40625,35.6648501 0.29375,37.9900091 0,47 L47,47 C46.70625,37.6993642 42.59375,35.6648501 42.59375,35.6648501 Z" id="Path" fill="#5599FF"></path>
                <path d="M3.2224375,44.0935513 C3.8510625,40.3326067 5.2786875,38.7369664 5.728125,38.3097184 C8.96525,37.3534968 11.579625,36.2054496 13.90025,35.1852861 L14.6904375,34.8394187 C16.83775,36.888465 20.10425,38.0975477 23.552875,38.0975477 C27.025,38.0975477 30.215125,36.888465 32.3154375,34.8394187 L33.09975,35.1823797 C35.4291875,36.2054496 38.05825,37.3593097 41.313,38.3184378 C41.7859375,38.7340599 43.187125,40.2541326 43.7951875,44.0906449 L44.0625,47 L47,47 C46.70625,37.6993642 42.59375,35.6648501 42.59375,35.6648501 C37.63525,34.2639419 34.174875,32.3456857 30.72625,31.0319709 C30.93775,31.706267 30.9700625,32.0521344 30.55,32.4677566 C28.82275,34.3191644 26.179,35.1940054 23.5499375,35.1940054 C20.815125,35.1940054 18.0979375,34.2465032 16.45,32.4677566 C16.0240625,32.0463215 16.103375,31.6975477 16.3589375,31 C12.8809375,32.3108084 9.4029375,34.2523161 4.40625,35.6648501 C4.40625,35.6648501 0.29375,37.9900091 0,47 L2.9375,47 L3.2224375,44.0935513 Z" id="Path" fill="#000000" opacity="0.15"></path>
                <path d="M23.4867412,26.079045 C21.3663319,26.079045 19.2668575,24.8310297 17.5143048,23.0607307 C17.3797231,30.4152149 15.2114625,31.0377042 16.309051,32.152112 C19.5988257,35.7959523 27.0755863,36.0996056 30.6644314,32.152112 C31.7650106,31.0346677 29.8330156,30.4121783 29.516001,23 C27.7514855,24.8037009 25.6310762,26.079045 23.4867412,26.079045 Z" id="Path" fill="#FFC857"></path>
                <path d="M16,30.7790869 C16.2994325,30.65243 16.6074202,30.5081001 16.9068527,30.3902798 C16.6587515,31.0972018 16.5817546,31.4506627 16.9952566,31.8777614 C17.371686,32.2989691 17.8080019,32.6701031 18.2842422,33 L19.1426153,32.6612666 L19.5846347,31.3858616 L19.6644834,31.1590574 C20.0295059,30.1310751 20.6511847,28.3402062 20.8964342,25.1502209 C19.8782151,24.6071668 18.9494564,23.9013622 18.144507,23.0589102 C18.0646583,27.3976436 17.2747269,29.3063328 16.8982975,30.3902798 C16.6017167,30.5081001 16.2994325,30.65243 16,30.7790869 Z M28.1312936,31.2857143 L28.5362404,32.6583211 L29.3860584,32.9970545 C29.8537434,32.6701031 30.2986145,32.3078056 30.6835992,31.8777614 C31.088546,31.4565538 31.0571769,31.1060383 30.8547035,30.4226804 L30.8604069,30.4256259 C30.5410123,29.3416789 29.7767465,27.4212077 29.5913835,23 C28.7963957,23.8409094 27.880699,24.5502642 26.8765289,25.1030928 C27.1559992,28.1428571 27.7006812,29.904271 28.0200758,30.9204713 L28.1312936,31.2857143 Z" id="Shape" fill="#000000" fill-rule="nonzero" opacity="0.15"></path>
                <path d="M24,26 C19,26 14,19.3555556 14,14.7333333 L14,8.37777778 C14,3.75555556 18.1176471,0 22.8235294,0 L25.1764706,0 C30.1764706,0 34,3.75555556 34,8.37777778 L34,14.7333333 C34,19.3555556 29,26 24,26 Z" id="Path" fill="#FFC857"></path>
                <path d="M25.1764706,2.88888889 C28.4764706,2.88888889 31.0588235,5.30111111 31.0588235,8.37777778 L31.0588235,14.7333333 C31.0588235,17.966 27.2058824,23.1111111 24,23.1111111 C20.7941176,23.1111111 16.9411765,17.966 16.9411765,14.7333333 L16.9411765,8.37777778 C16.9411765,5.45422222 19.6911765,2.88888889 22.8235294,2.88888889 L25.1764706,2.88888889 Z M25.1764706,0 L22.8235294,0 C18.1176471,0 14,3.75555556 14,8.37777778 L14,14.7333333 C14,19.3555556 19,26 24,26 C29,26 34,19.3555556 34,14.7333333 L34,8.37777778 C34,3.75555556 30.1764706,0 25.1764706,0 Z" id="Shape" fill="#000000" fill-rule="nonzero" opacity="0.15"></path>
            </g>
            <rect id="Rectangle" stroke="#555555" stroke-width="5" x="2.5" y="2.5" width="81" height="53" rx="3"></rect>
        </g>
    </g>
</svg>