<?xml version="1.0" encoding="UTF-8"?>
<svg width="83px" height="82px" viewBox="0 0 83 82" version="1.1" xmlns="http://www.w3.org/2000/svg" xmlns:xlink="http://www.w3.org/1999/xlink">
    <!-- Generator: Sketch 52.5 (67469) - http://www.bohemiancoding.com/sketch -->
    <title>tx_bwemail_domain_model_contactsource_beuser</title>
    <desc>Created with Sketch.</desc>
    <g id="Page-1" stroke="none" stroke-width="1" fill="none" fill-rule="evenodd">
        <g id="tx_bwemail_domain_model_contactsource_beuser" transform="translate(0.432288, 0.000000)">
            <path d="M9,0 L9,9 L0,9 L0,73 L9,73 L9,82 L73,82 L73,73 L82,73 L82,9 L73,9 L73,0 L9,0 Z M4,13 L78,13 L78,69 L4,69 L4,13 Z" id="Shape" fill="#000000" fill-rule="nonzero"></path>
            <path d="M13,73.0002 L69,73.0002 L69,78.0002 L13,78.0002 L13,73.0002 Z M13,4 L69,4 L69,9 L13,9 L13,4 Z" id="Path-2" fill="#BEBEBE" fill-rule="nonzero"></path>
            <g id="status-user-backend" transform="translate(18.000000, 18.500000)">
                <path d="M41.5355523,34.6607022 C36.7002411,33.2800032 33.3258355,31.3894194 29.962888,30.094656 C30.1691335,30.7592248 30.2006433,31.1001028 29.7910168,31.5097293 C26.3535918,35.2336064 19.1922897,34.9471543 16.0413167,31.5097293 C15.6259612,31.0943738 15.7033033,30.7506313 15.9525166,30.0631463 C12.5609239,31.3550452 9.16933123,33.2685451 4.29678127,34.6607022 C4.29678127,34.6607022 0.286452085,36.9523189 0,45.8323335 L45.8323335,45.8323335 C45.5458814,36.6658668 41.5355523,34.6607022 41.5355523,34.6607022 Z" id="Path" fill="#5599FF"></path>
                <path d="M3.14237937,42.9678127 C3.75538683,39.2611227 5.14754396,37.6885008 5.58581565,37.2674162 C8.74251762,36.3249888 11.2919412,35.1935031 13.5549126,34.1880563 L14.3254687,33.8471783 C16.4194335,35.8666655 19.6047807,37.0583062 22.9677281,37.0583062 C26.3535918,37.0583062 29.4644614,35.8666655 31.5125938,33.8471783 L32.2774209,34.1851918 C34.5489859,35.1935031 37.1127321,36.3307179 40.2866212,37.2760098 C40.747809,37.6856362 42.1141855,39.1837806 42.7071413,42.9649482 L42.9678127,45.8323335 L45.8323335,45.8323335 C45.5458814,36.6658668 41.5355523,34.6607022 41.5355523,34.6607022 C36.7002411,33.2800032 33.3258355,31.3894194 29.962888,30.094656 C30.1691335,30.7592248 30.2006433,31.1001028 29.7910168,31.5097293 C28.1066785,33.3344291 25.5286098,34.1966499 22.9648636,34.1966499 C20.2979947,34.1966499 17.6483129,33.2628161 16.0413167,31.5097293 C15.6259612,31.0943738 15.7033033,30.7506313 15.9525166,30.0631463 C12.5609239,31.3550452 9.16933123,33.2685451 4.29678127,34.6607022 C4.29678127,34.6607022 0.286452085,36.9523189 0,45.8323335 L2.86452085,45.8323335 L3.14237937,42.9678127 Z" id="Path" fill="#000000" opacity="0.15"></path>
                <path d="M22.9161668,25.7806876 C20.8852215,25.7806876 18.8743279,24.6033695 17.1957186,22.9333539 C17.0668152,29.8712234 14.9900376,30.4584502 16.0413167,31.5097293 C19.1922897,34.9471543 26.3535918,35.2336064 29.7910168,31.5097293 C30.8451605,30.4555856 28.99468,29.8683589 28.6910408,22.8760635 C27.0009735,24.5775889 24.9700282,25.7806876 22.9161668,25.7806876 Z" id="Path" fill="#FFC857"></path>
                <path d="M15.041599,30.441263 C15.3423736,30.3180886 15.6517419,30.1777271 15.9525166,30.0631463 C15.7033033,30.7506313 15.6259612,31.0943738 16.0413167,31.5097293 C16.4194335,31.9193558 16.8577052,32.2802854 17.3360802,32.6011117 L18.1983009,32.2716918 L18.6423017,31.0313543 L18.7225082,30.8107862 C19.0891669,29.8110684 19.7136325,28.0694398 19.9599813,24.9671637 C18.937198,24.439041 18.0042762,23.7526425 17.1957186,22.9333539 C17.1155121,27.1527931 16.3220398,29.0090026 15.943923,30.0631463 C15.6460129,30.1777271 15.3423736,30.3180886 15.041599,30.441263 Z M27.2272706,30.9339606 L27.6340326,32.2688273 L28.4876598,32.5982472 C28.9574412,32.2802854 29.4043065,31.9279493 29.7910168,31.5097293 C30.1977788,31.1001028 30.166269,30.7592248 29.962888,30.094656 L29.9686171,30.0975205 C29.6477908,29.0433769 28.8800992,27.1757093 28.6939053,22.8760635 C27.895354,23.6938519 26.9755528,24.3837029 25.9668815,24.9213314 C26.2476045,27.8775169 26.794728,29.5905003 27.1155543,30.57876 L27.2272706,30.9339606 Z" id="Shape" fill="#000000" fill-rule="nonzero" opacity="0.15"></path>
                <path d="M22.9161668,25.7806876 C18.0464813,25.7806876 13.1767959,19.1922897 13.1767959,14.6090563 L13.1767959,8.30711045 C13.1767959,3.7238771 17.1871251,0 21.7703584,0 L24.0619751,0 C28.9316605,0 32.6555376,3.7238771 32.6555376,8.30711045 L32.6555376,14.6090563 C32.6555376,19.1922897 27.7858522,25.7806876 22.9161668,25.7806876 Z" id="Path" fill="#FFC857"></path>
                <path d="M24.0619751,2.86452085 C27.2759675,2.86452085 29.7910168,5.25639575 29.7910168,8.30711045 L29.7910168,14.6090563 C29.7910168,17.8144551 26.0384945,22.9161668 22.9161668,22.9161668 C19.793839,22.9161668 16.0413167,17.8144551 16.0413167,14.6090563 L16.0413167,8.30711045 C16.0413167,5.40821536 18.7196437,2.86452085 21.7703584,2.86452085 L24.0619751,2.86452085 Z M24.0619751,0 L21.7703584,0 C17.1871251,0 13.1767959,3.7238771 13.1767959,8.30711045 L13.1767959,14.6090563 C13.1767959,19.1922897 18.0464813,25.7806876 22.9161668,25.7806876 C27.7858522,25.7806876 32.6555376,19.1922897 32.6555376,14.6090563 L32.6555376,8.30711045 C32.6555376,3.7238771 28.9316605,0 24.0619751,0 Z" id="Shape" fill="#000000" fill-rule="nonzero" opacity="0.15"></path>
            </g>
        </g>
    </g>
</svg>